<svg version="1.0" xmlns="http://www.w3.org/2000/svg" width="773.333" height="665.333" viewBox="0 0 580 499"><path d="M278.5 15.6c-16.7 1.8-31.8 6.1-47 13.4-14.7 7.1-24.7 14.2-37.1 26.5-20.4 20.2-33 43.5-39 72-2.6 12.3-2.6 41.2 0 53.3 5.9 27.5 18.8 51.6 38.1 70.8 19.8 19.7 43.4 32.2 71.5 38 11.9 2.5 39.3 2.5 51 .1 23.8-5 44.1-14.7 62-29.6 24.1-19.9 40.6-47.8 47.6-80.1 2.9-13.2 2.6-41.1-.4-54.9-12.3-55.2-53.5-96-108.3-107.1-9.6-2-30.3-3.3-38.4-2.4zm41.8 6.3c.5.1.6.4.4.9-.3.4 1.4.8 3.8.9 4.4.1 7.2 1.2 18 6.5 11.8 5.8 15.2 8.3 24.6 17.7 8.7 8.8 14.7 18.3 18.4 29.5 2.4 7.3 2.6 9.1 2.4 21.7-.2 7.6 0 14.2.4 14.5 1.1 1.1.8 2.8-.6 4.9-1.3 1.6-1.4 1.5-1-1.6.4-2.9.3-3.1-.8-1.5-.6 1-1.3 3.6-1.4 5.8-.2 3.5-1.5 6.8-1.5 3.8 0-.7-.3-1.1-.6-.8-.3.4-.1 1.6.6 2.7.9 1.7.7 2.6-.7 4.6-2.7 3.6-3.5 3-1.8-1.3l1.5-3.7-2 2.5c-1.4 1.9-1.8 3.4-1.3 6.2.5 3.3.2 3.9-1.8 4.7-1.3.6-3.7 2.4-5.3 4.1-1.7 1.7-3.6 2.8-4.3 2.6-1.7-.7-1.7.6 0 2.3 1 1.1.8 1.2-.9.2-1.7-.8-2.5-.7-3.3.3-.6.7-.7 1.7-.3 2.1.4.5-.1.5-1 .2-1.2-.4-1.8-.1-1.8.8 0 .8-.3 1.4-.7 1.4-1.5-.3-2.8.2-4.7 1.6-1.8 1.3-1.7 1.7 1.8 8.5 6.4 12.3 8.1 19 8.1 32 0 9.4-.5 12.7-2.3 18-5.1 14.3-15.4 28-29.5 39.4-8.6 6.9-8.6 6.9-8.1 10.8 1.8 12.3-11.3 21.7-32.5 23.4-13.7 1.1-29.6-3.8-36-11.1-3.5-4-4.9-9.6-3.3-13.8 1-2.7.8-3.4-3.1-8.1-12.8-15.3-21.6-34.3-25.8-55.7-1.8-9.2-1.5-34.4.5-46.4 2.8-16.5 7.6-32.5 13.7-45.1 1.8-3.7 2.7-6.9 2.3-8-.5-1.6-.4-1.6.5-.4.9 1.3 1.2 1.2 1.7-.5.3-1.1.4-2.3.2-2.7-.2-.4.7-1.5 1.9-2.3 1.4-1 2-2.1 1.6-3.2-.5-1.2-.3-1.4.7-.8.8.5 1.1.4.6-.3-1.2-2-3.7-.2-3 2.2.5 1.7.4 1.9-.7.9-1-1.1-.9-2 1.1-5.4 1.2-2.3 1.8-3.9 1.2-3.5-.6.4-.8-.1-.5-1.4.3-1.1 1.1-2 1.8-2 1.6 0 2.7-2.7 1.5-3.5-1.6-1-1.1-2.2 1-2.8 2.2-.6 2.8.8.8 1.6-.7.2-.9.8-.5 1.3.5.5 1.5 0 2.4-1.1 1.5-1.9 1.5-1.9 1 1-.4 1.6-.4 2.4-.1 1.7.3-.6.9-1 1.4-.7.4.3.6-.4.3-1.6-.3-1.1-1.2-2.3-1.9-2.6-.8-.3-1.4-1.1-1.4-1.9 0-.8-1.2-3.3-2.6-5.5-2.2-3.6-2.7-3.9-4.2-2.7-1.5 1.2-1.6 1.1-.3-.5s1.1-2.3-1.7-6c-5.4-7.1-6.7-10.4-5.6-13.5.8-2.2 1.5-2.7 4.4-2.7 2.9 0 3.9.7 6.8 4.5 1.9 2.5 4 4.3 4.6 4.2.6-.2.8 0 .4.4-1 .9 2.3 6.4 3.9 6.4.7 0 1 .6.7 1.3-.2.7.2 2.1 1.1 3.2 1.2 1.6 1.4 1.7.9.2-.3-.9-.2-1.7.4-1.7.5 0 1.3-.7 1.6-1.6.3-.8.2-1.2-.4-.9-.6.3-1.3-.2-1.7-1.1-.4-1.2.1-2.2 1.5-3.2 1.2-.8 2.2-2.1 2.2-2.8 0-.8.7-1.4 1.5-1.4s2.5-2 3.7-4.5c1.7-3.5 3.1-4.8 6.5-6.2 2.7-1.1 4.3-2.4 4.3-3.5 0-2.3 3.5-4.4 8.5-5.3 2.2-.4 5.7-1.5 7.9-2.6 2.2-1 5.8-2 8-2l4.1-.2-4-.7-4-.7 4.8-.2c2.8 0 4.6.3 4.2.8-.3.5.8.9 2.5.9 2.5-.1 2.7-.3 1.3-1.3-1.3-1-.9-1.1 2.3-.9 2.1.1 4.3.2 4.7.3zM261 57.4c0 .3-.4.8-1 1.1-.5.3-1 .1-1-.4 0-.6.5-1.1 1-1.1.6 0 1 .2 1 .4zm-11.1 12.2c.4-.3.7.4.7 1.5 0 1-.4 1.9-.8 1.9s-.8-.4-.8-.9-.2-1.5-.3-2.3c-.2-.7-.2-1 0-.5.3.4.8.5 1.2.3zm-8.8 21.1c-1.2 2-1.4 1.4-.5-1.2.4-.9.9-1.4 1.1-1.1.3.2 0 1.3-.6 2.3zm1.2 3.8c.4.8.3 1.6-.1 1.9-.4.3-.9-.4-.9-1.5-.2-2.3.3-2.5 1-.4zm147.8 10.2c-1.2 2-1.4 1.4-.5-1.2.4-.9.9-1.4 1.1-1.1.3.2 0 1.3-.6 2.3zm-24.7 45.9c.3.8.2 1.2-.4.9-.6-.3-1-1-1-1.6 0-1.4.7-1.1 1.4.7z"/><path d="M317 23c0 .5.5 1 1 1 .6 0 1-.5 1-1 0-.6-.4-1-1-1-.5 0-1 .4-1 1zm-45 18c0 .5.5 1 1 1 .6 0 1-.5 1-1 0-.6-.4-1-1-1-.5 0-1 .4-1 1zm-25.4 77.9c.3 1.4.2 2.1-.3 1.8-.6-.4-.9 1.5-.7 4.5.2 3.7-.3 5.6-1.6 7-1.7 1.9-1.7 1.8-1.3-.6.3-1.4.9-2.4 1.3-2.1.4.3.8-.7.8-2 0-2.8-1.7-4.6-1.9-2.1-.2 2.3-.3 2.6-2.6 8.6-1.2 3.1-2.4 6.9-2.7 8.5-4.7 23.3-4.8 23.9-4.2 38.5.3 8 .9 16.1 1.4 18l.8 3.5.8-3.9c1.6-8.2 4.8-16.5 10-25.8 4.4-8.1 5.1-10 4-10.9-1.6-1.3-1.8-3.7-.5-5.8.7-1 .9-.4.8 2-.1 2 .3 3.4 1 3.4 1.2 0 8.3-8.4 8.3-9.9 0-.6-.7-.1-1.5 1-1 1.4-1.4 1.5-1.5.4 0-1.1-.3-1.1-1.2-.2-.7.7-1.9 1.2-2.7 1.1-1 0-1.1-.2-.4-.5 1.2-.5.5-2.4-5-14.2-1.7-3.5-1.8-4.8-1-7.7.6-1.9.8-3.5.4-3.5-1 0-.7-5.2.3-6.8.4-.7.2-2-.4-2.9-.9-1.5-1-1.4-.4.6zm8.1 38.5c-1.8 1.7-2.7 2-2.7 1.1 0-1.5 4-4.8 4.8-4 .3.3-.7 1.6-2.1 2.9zM371.5 141c-1.6 1.6-2.4 3-1.8 3 .7 0 2.1-1.4 3.3-3 1.2-1.7 2-3 1.8-3-.3 0-1.7 1.3-3.3 3zm-31.3 22.7c-.6.2-.9 1-.6 1.5.4.7.2.8-.4.4-1.4-.8-13.2 3.2-13.2 4.5 0 .5.4.9 1 .9.5 0 .7.7.4 1.5-.4.8-.1 1.5.5 1.5.7 0 1.8 1.5 2.6 3.2.7 1.8 2.3 4.3 3.4 5.5 1.2 1.2 1.8 2.9 1.5 3.8-.4.8.1 3.7 1 6.3 2.5 7.8 3 18 1.1 23.6-.9 2.7-1.4 5.7-1.2 6.7.3 1.1.1 1.7-.3 1.4-1-.6-2.8 4.5-3.3 9-.2 1.7-.7 3.6-1.1 4.3-.4.7-.3 1.2.2 1.2 2.1 0 13.9-14 17-20 8.2-16.3 7.8-29.8-1.5-48.8-3.4-6.9-4.2-7.7-7.1-6.5zm-81.9 10.1c-.9 1.5-.8 1.9.2 1.9.8 0 1.4-.3 1.3-.6-.2-1.9.4-2.4 1.3-1.1.9 1.2 1 1.2.7.1-.6-2.2-2.2-2.3-3.5-.3zm-8.3 16.1c0 .6.4 1.3 1 1.6.6.3.7-.1.4-.9-.7-1.8-1.4-2.1-1.4-.7zm-3.7 20.9c-.2 2.7 0 3.3.7 2.2 1.2-1.8 1.3-4.7.3-5.3-.5-.3-.9 1.1-1 3.1zm187.4-69.9c-.7 19.2-2.4 33.6-5.7 47.8-1.1 4.6-2.2 9.4-2.4 10.8-.3 1.3-.8 3-1.2 3.7-.5.7-.2.9.8.5 1.2-.4 1.5 0 1.1 1.6-.5 2.2-.5 2.2 1.1.2 1.7-2 1.7-2 1.3.2-.3 1.3-.2 2.3.2 2.3.5 0 1.3-1 2-2.3.6-1.2 1-1.5.7-.6-.2.9.2 1.6.9 1.6 1.6 0 5.8-14.2 8-27.1 2.3-13.3 3.6-30.8 3.3-42l-.3-10-4.6-2.7-4.6-2.7-.6 18.7zm-293.6-15.6l-4.4 2.2.6 17.5c.7 19.3 2.4 32.9 6.3 49.3 1.8 7.5 3.1 11 4.3 11.5.9.3 2.2 1.3 2.9 2.1 1.1 1.4 1.2 1.3.3-.6-1.8-3.6-1.2-4.8 1-2.2l2.2 2.4-.6-3.3c-.5-2.7-.4-3 .7-2 .7.7 1.1 2 .9 2.9-.3.9-.1 1.9.4 2.2 1.5.9.8-5-1.5-13.8-4.3-16.6-7.2-40.8-7.2-60.8 0-5.3-.3-9.7-.7-9.6-.5 0-2.8 1-5.2 2.2zm89.3 174.6c1.4 1.5 1.5 2.1.4 2.8-.7.4-1.9 1.5-2.6 2.4-1.1 1.5-.4 2.2 5.5 5.5 3.7 2.1 9.5 5.1 12.8 6.7 6.5 3.1 28.5 10.7 31 10.7.9 0 1.5.9 1.5 2.2-.1 1.3-2.9 16-6.3 32.8-5.2 25.2-6.1 31-5.2 33.6.9 2.7 1.2 2.9 2.3 1.7 1-1 1.7-1.1 2.7-.3.9.7 8 1 20.9.9l19.5-.2.6-4.1c.4-2.8-1.1-13.1-5-33.5-3-16.2-5.5-30.2-5.5-31.1 0-1.3 1.7-2.2 6.3-3.5 13.2-3.6 38.4-15.1 45.6-20.6 2.1-1.7 2.2-1.9.5-2-1.1-.1-2.3-.1-2.9.1-.5.1-.1-.8 1-2l1.9-2.1-2.9.6-3 .6 3-1.5c1.7-.8 2.3-1.5 1.4-1.5-.8-.1-3.7 1.3-6.5 3.1-11.9 7.6-42.7 19.9-53.5 21.4-8.4 1.2-33.2-7.4-54.3-18.7-6-3.2-10.1-5-9.2-4zm70.1 30.3c.2.7.6 2.9.9 4.9l.7 3.7-10.5.1c-5.7.1-10.7-.2-11-.7-.2-.4-.2-2.7.1-5l.6-4.2h9.4c6.6 0 9.5.4 9.8 1.2z"/><path d="M226.7 301.4c-.4 1-.1 1.3.8.9.8-.3 1.2-.9.9-1.4-.7-1.2-1.1-1.1-1.7.5zm-3.2 3.6c.3.5.8 1 1.1 1 .2 0 .4-.5.4-1 0-.6-.5-1-1.1-1-.5 0-.7.4-.4 1zm27.3 106.2c-4.1 1.4-3.4 2.4 1.8 3.2 6.6.9 10.4.8 10.4-.3 0-.5.3-1.6.6-2.5.5-1.3-.2-1.6-4.7-1.5-3 .1-6.6.6-8.1 1.1zm64.2.7c0 2.1-.2 2.1-25.7 2.2-21.5.1-24.5.3-17.8 1.1 8.3 1 55.3.2 64-1 4.9-.7 5-.8 2.5-2.2-1.6-.9-6.4-1.6-12.7-1.8-9.9-.4-10.3-.4-10.3 1.7zM82 452.3c0 18.6.2 22.6 1.4 23 .8.3 6.6.5 12.8.4 9.9-.2 12-.5 16.2-2.7 16.4-8.5 16.5-31.6.1-40-4.4-2.2-6.4-2.5-17.7-2.9l-12.8-.3v22.5zm27.7-11.5c5.9 4.2 7.8 12.2 4.6 18.9-2.6 5.5-6.4 7.3-15.5 7.3H91v-29.3l7.9.5c5.9.3 8.5 1 10.8 2.6zm23.5 11.8l.3 22.9 4.3.3 4.2.3V460h4c3.8 0 4 .2 7.6 6.5 2 3.6 4.3 7.2 5.1 8 1.3 1.4 9.3 2.2 9.3 1 0-.3-2.1-4.2-4.7-8.6l-4.7-8.1 3.2-2.4c5.7-4.5 6.7-14 2.1-19.8-3.7-4.7-7.5-5.9-19.7-6.4l-11.2-.5.2 22.9zm22.9-11.7c2.5 3.1 2.4 6-.3 8.8-1.8 1.9-3.2 2.3-8 2.3H142v-14.2l6.1.4c4.9.4 6.6.9 8 2.7zM177 453v23h32v-9h-23v-11h18v-8h-18v-10h23v-8h-32v23zm54.2-18.3c-5.4 12.6-16.2 39.5-16.2 40.3 0 .6 2 1 4.4 1 4.2 0 4.4-.1 6-4.5l1.8-4.5h20.4l1.4 4.2c1.5 4.2 1.6 4.3 6.3 4.6 2.6.2 4.7.1 4.7-.1s-4.2-10.4-9.3-22.8l-9.3-22.4-4.1-.3c-3.9-.3-4.1-.2-6.1 4.5zm11.2 19.7c.9 2.1 1.6 4 1.6 4.2 0 .2-2.9.4-6.5.4s-6.5-.3-6.5-.7c0-.4 1.4-4.5 3.1-9l3.2-8.4 1.7 4.8c.9 2.6 2.5 6.5 3.4 8.7zm23.8-1.7l.3 22.8 4.3.2 4.3.3-.3-15c-.2-8.3-.1-15 .2-15 .3 0 2.8 4.1 5.5 9 4.3 7.8 5.4 9 7.7 9s3.2-1 6.7-7.3c7.3-13.1 7-13.3 7.1 4V476h8l.2-18c.1-9.9.2-20.1.3-22.8v-4.7l-4-.3-4-.3-5.9 9.8c-3.3 5.4-6.5 10.6-7.1 11.6-1.1 1.5-2.1.3-8.1-9.8l-6.9-11.5H266l.2 22.7zm110.9-9c-2.3 2.7-2.4 2.7-3.8.8-1.4-1.9-1.5-1.9-.8.5.7 2.2.6 2.4-.9 1.1-.9-.8-1.5-2-1.2-2.8 1-2.5-.4-1.3-2 1.9-2.1 4.1-2.1 13.3.1 18.4 9.5 22.9 44.6 15.7 44.5-9-.1-5.6-2.7-14.9-2.9-10.2-.1 1.4-.4 1.6-1.4.7-1-.8-1.7-.7-2.7.2-.8.7-1.1.8-.7.1.4-.7 0-1.7-.8-2.4-1.3-1.1-1.4-1-.9.5.5 1.3.4 1.6-.5 1-1.1-.6-1.1-.3-.1 1.6 2.1 3.9 1.7 12-.8 16.1-3.7 6-12.1 8.4-18.8 5.2-7.5-3.6-10.2-15.1-5.4-22.9 2.6-4.2 2.3-4.4-.9-.8zm-53-.4c-1.1 1.4-1 1.8 7.1 22.5l4 10.3 5-.3 5.1-.3 5.8-14.8c5.3-13.4 6.2-17.7 3.9-17.7-.5 0-.6 1-.3 2.2.3 1.7.2 1.9-.5.9-.8-1.1-1-1.1-1.5 0-.4 1.1-.6 1.1-.6.1-.1-.7-.6-1-1.2-.6-.8.4-.9-.1-.4-1.7.5-1.7.4-2.1-.3-1.4-.6.5-3.1 6.2-5.6 12.5-3.4 8.8-4.6 11-5.2 9.5-1.7-4.9-7.6-19-8-19.5-.3-.2-1 .2-1.5 1-.8 1.1-.9 1-.4-.7.5-1.8.3-2.2-.9-1.7-.9.3-1.6 1.4-1.6 2.3-.1 1.4-.2 1.4-1.1-.2-.5-.9-.7-2.2-.4-2.7.9-1.5-.1-1.2-1.4.3zM470 459.2V476h9v-15.4c0-8.5-.4-15.7-.9-16.1-.5-.3-1.2.3-1.4 1.2-.4 1.6-.5 1.6-.6.1-.1-1.1-.7-1.5-2.2-1.1-1.2.4-2.5 0-3-.8s-.9 5.3-.9 15.3zm-45.7-14.4c-2.3.3-2.3.5-2.3 15.8V476h31v-8h-22l-.1-6.3c-.1-3.4-.4-8.6-.7-11.6-.7-5.6-1.3-6.1-5.9-5.3z"/></svg>