<?xml version="1.0" standalone="no"?>
<!DOCTYPE svg PUBLIC "-//W3C//DTD SVG 20010904//EN"
 "http://www.w3.org/TR/2001/REC-SVG-20010904/DTD/svg10.dtd">
<svg version="1.0" xmlns="http://www.w3.org/2000/svg"
 width="580.000000pt" height="499.000000pt" viewBox="0 0 580.000000 499.000000"
 preserveAspectRatio="xMidYMid meet">

<g transform="translate(0.000000,499.000000) scale(0.100000,-0.100000)"
fill="#000000" stroke="none">
<path d="M2785 4834 c-167 -18 -318 -61 -470 -134 -147 -71 -247 -142 -371
-265 -204 -202 -330 -435 -390 -720 -26 -123 -26 -412 0 -533 59 -275 188
-516 381 -708 198 -197 434 -322 715 -380 119 -25 393 -25 510 -1 238 50 441
147 620 296 241 199 406 478 476 801 29 132 26 411 -4 549 -123 552 -535 960
-1083 1071 -96 20 -303 33 -384 24z m418 -63 c5 -1 6 -4 4 -9 -3 -4 14 -8 38
-9 44 -1 72 -12 180 -65 118 -58 152 -83 246 -177 87 -88 147 -183 184 -295
24 -73 26 -91 24 -217 -2 -76 0 -142 4 -145 11 -11 8 -28 -6 -49 -13 -16 -14
-15 -10 16 4 29 3 31 -8 15 -6 -10 -13 -36 -14 -58 -2 -35 -15 -68 -15 -38 0
7 -3 11 -6 8 -3 -4 -1 -16 6 -27 9 -17 7 -26 -7 -46 -27 -36 -35 -30 -18 13
l15 37 -20 -25 c-14 -19 -18 -34 -13 -62 5 -33 2 -39 -18 -47 -13 -6 -37 -24
-53 -41 -17 -17 -36 -28 -43 -26 -17 7 -17 -6 0 -23 10 -11 8 -12 -9 -2 -17 8
-25 7 -33 -3 -6 -7 -7 -17 -3 -21 4 -5 -1 -5 -10 -2 -12 4 -18 1 -18 -8 0 -8
-3 -14 -7 -14 -15 3 -28 -2 -47 -16 -18 -13 -17 -17 18 -85 64 -123 81 -190
81 -320 0 -94 -5 -127 -23 -180 -51 -143 -154 -280 -295 -394 -86 -69 -86 -69
-81 -108 18 -123 -113 -217 -325 -234 -137 -11 -296 38 -360 111 -35 40 -49
96 -33 138 10 27 8 34 -31 81 -128 153 -216 343 -258 557 -18 92 -15 344 5
464 28 165 76 325 137 451 18 37 27 69 23 80 -5 16 -4 16 5 4 9 -13 12 -12 17
5 3 11 4 23 2 27 -2 4 7 15 19 23 14 10 20 21 16 32 -5 12 -3 14 7 8 8 -5 11
-4 6 3 -12 20 -37 2 -30 -22 5 -17 4 -19 -7 -9 -10 11 -9 20 11 54 12 23 18
39 12 35 -6 -4 -8 1 -5 14 3 11 11 20 18 20 16 0 27 27 15 35 -16 10 -11 22
10 28 22 6 28 -8 8 -16 -7 -2 -9 -8 -5 -13 5 -5 15 0 24 11 15 19 15 19 10
-10 -4 -16 -4 -24 -1 -17 3 6 9 10 14 7 4 -3 6 4 3 16 -3 11 -12 23 -19 26 -8
3 -14 11 -14 19 0 8 -12 33 -26 55 -22 36 -27 39 -42 27 -15 -12 -16 -11 -3 5
13 16 11 23 -17 60 -54 71 -67 104 -56 135 8 22 15 27 44 27 29 0 39 -7 68
-45 19 -25 40 -43 46 -42 6 2 8 0 4 -4 -10 -9 23 -64 39 -64 7 0 10 -6 7 -13
-2 -7 2 -21 11 -32 12 -16 14 -17 9 -2 -3 9 -2 17 4 17 5 0 13 7 16 16 3 8 2
12 -4 9 -6 -3 -13 2 -17 11 -4 12 1 22 15 32 12 8 22 21 22 28 0 8 7 14 15 14
8 0 25 20 37 45 17 35 31 48 65 62 27 11 43 24 43 35 0 23 35 44 85 53 22 4
57 15 79 26 22 10 58 20 80 20 l41 2 -40 7 -40 7 48 2 c28 0 46 -3 42 -8 -3
-5 8 -9 25 -9 25 1 27 3 13 13 -13 10 -9 11 23 9 21 -1 43 -2 47 -3z m-593
-355 c0 -3 -4 -8 -10 -11 -5 -3 -10 -1 -10 4 0 6 5 11 10 11 6 0 10 -2 10 -4z
m-111 -122 c4 3 7 -4 7 -15 0 -10 -4 -19 -8 -19 -4 0 -8 4 -8 9 0 5 -2 15 -3
23 -2 7 -2 10 0 5 3 -4 8 -5 12 -3z m-88 -211 c-12 -20 -14 -14 -5 12 4 9 9
14 11 11 3 -2 0 -13 -6 -23z m12 -38 c4 -8 3 -16 -1 -19 -4 -3 -9 4 -9 15 -2
23 3 25 10 4z m1478 -102 c-12 -20 -14 -14 -5 12 4 9 9 14 11 11 3 -2 0 -13
-6 -23z m-247 -459 c3 -8 2 -12 -4 -9 -6 3 -10 10 -10 16 0 14 7 11 14 -7z"/>
<path d="M3170 4760 c0 -5 5 -10 10 -10 6 0 10 5 10 10 0 6 -4 10 -10 10 -5 0
-10 -4 -10 -10z"/>
<path d="M2720 4580 c0 -5 5 -10 10 -10 6 0 10 5 10 10 0 6 -4 10 -10 10 -5 0
-10 -4 -10 -10z"/>
<path d="M2466 3801 c3 -14 2 -21 -3 -18 -6 4 -9 -15 -7 -45 2 -37 -3 -56 -16
-70 -17 -19 -17 -18 -13 6 3 14 9 24 13 21 4 -3 8 7 8 20 0 28 -17 46 -19 21
-2 -23 -3 -26 -26 -86 -12 -31 -24 -69 -27 -85 -47 -233 -48 -239 -42 -385 3
-80 9 -161 14 -180 l8 -35 8 39 c16 82 48 165 100 258 44 81 51 100 40 109
-16 13 -18 37 -5 58 7 10 9 4 8 -20 -1 -20 3 -34 10 -34 12 0 83 84 83 99 0 6
-7 1 -15 -10 -10 -14 -14 -15 -15 -4 0 11 -3 11 -12 2 -7 -7 -19 -12 -27 -11
-10 0 -11 2 -4 5 12 5 5 24 -50 142 -17 35 -18 48 -10 77 6 19 8 35 4 35 -10
0 -7 52 3 68 4 7 2 20 -4 29 -9 15 -10 14 -4 -6z m81 -385 c-18 -17 -27 -20
-27 -11 0 15 40 48 48 40 3 -3 -7 -16 -21 -29z"/>
<path d="M3715 3580 c-16 -16 -24 -30 -18 -30 7 0 21 14 33 30 12 17 20 30 18
30 -3 0 -17 -13 -33 -30z"/>
<path d="M3402 3353 c-6 -2 -9 -10 -6 -15 4 -7 2 -8 -4 -4 -14 8 -132 -32
-132 -45 0 -5 4 -9 10 -9 5 0 7 -7 4 -15 -4 -8 -1 -15 5 -15 7 0 18 -15 26
-32 7 -18 23 -43 34 -55 12 -12 18 -29 15 -38 -4 -8 1 -37 10 -63 25 -78 30
-180 11 -236 -9 -27 -14 -57 -12 -67 3 -11 1 -17 -3 -14 -10 6 -28 -45 -33
-90 -2 -17 -7 -36 -11 -43 -4 -7 -3 -12 2 -12 21 0 139 140 170 200 82 163 78
298 -15 488 -34 69 -42 77 -71 65z"/>
<path d="M2583 3252 c-9 -15 -8 -19 2 -19 8 0 14 3 13 6 -2 19 4 24 13 11 9
-12 10 -12 7 -1 -6 22 -22 23 -35 3z"/>
<path d="M2500 3091 c0 -6 4 -13 10 -16 6 -3 7 1 4 9 -7 18 -14 21 -14 7z"/>
<path d="M2463 2882 c-2 -27 0 -33 7 -22 12 18 13 47 3 53 -5 3 -9 -11 -10
-31z"/>
<path d="M4337 3581 c-7 -192 -24 -336 -57 -478 -11 -46 -22 -94 -24 -108 -3
-13 -8 -30 -12 -37 -5 -7 -2 -9 8 -5 12 4 15 0 11 -16 -5 -22 -5 -22 11 -2 17
20 17 20 13 -2 -3 -13 -2 -23 2 -23 5 0 13 10 20 23 6 12 10 15 7 6 -2 -9 2
-16 9 -16 16 0 58 142 80 271 23 133 36 308 33 420 l-3 100 -46 27 -46 27 -6
-187z"/>
<path d="M1401 3737 l-44 -22 6 -175 c7 -193 24 -329 63 -493 18 -75 31 -110
43 -115 9 -3 22 -13 29 -21 11 -14 12 -13 3 6 -18 36 -12 48 10 22 l22 -24 -6
33 c-5 27 -4 30 7 20 7 -7 11 -20 9 -29 -3 -9 -1 -19 4 -22 15 -9 8 50 -15
138 -43 166 -72 408 -72 608 0 53 -3 97 -7 96 -5 0 -28 -10 -52 -22z"/>
<path d="M2294 1991 c14 -15 15 -21 4 -28 -7 -4 -19 -15 -26 -24 -11 -15 -4
-22 55 -55 37 -21 95 -51 128 -67 65 -31 285 -107 310 -107 9 0 15 -9 15 -22
-1 -13 -29 -160 -63 -328 -52 -252 -61 -310 -52 -336 9 -27 12 -29 23 -17 10
10 17 11 27 3 9 -7 80 -10 209 -9 l195 2 6 41 c4 28 -11 131 -50 335 -30 162
-55 302 -55 311 0 13 17 22 63 35 132 36 384 151 456 206 21 17 22 19 5 20
-11 1 -23 1 -29 -1 -5 -1 -1 8 10 20 l19 21 -29 -6 -30 -6 30 15 c17 8 23 15
14 15 -8 1 -37 -13 -65 -31 -119 -76 -427 -199 -535 -214 -84 -12 -332 74
-543 187 -60 32 -101 50 -92 40z m701 -303 c2 -7 6 -29 9 -49 l7 -37 -105 -1
c-57 -1 -107 2 -110 7 -2 4 -2 27 1 50 l6 42 94 0 c66 0 95 -4 98 -12z"/>
<path d="M2267 1976 c-4 -10 -1 -13 8 -9 8 3 12 9 9 14 -7 12 -11 11 -17 -5z"/>
<path d="M2235 1940 c3 -5 8 -10 11 -10 2 0 4 5 4 10 0 6 -5 10 -11 10 -5 0
-7 -4 -4 -10z"/>
<path d="M2508 878 c-41 -14 -34 -24 18 -32 66 -9 104 -8 104 3 0 5 3 16 6 25
5 13 -2 16 -47 15 -30 -1 -66 -6 -81 -11z"/>
<path d="M3150 871 c0 -21 -2 -21 -257 -22 -215 -1 -245 -3 -178 -11 83 -10
553 -2 640 10 49 7 50 8 25 22 -16 9 -64 16 -127 18 -99 4 -103 4 -103 -17z"/>
<path d="M820 467 c0 -186 2 -226 14 -230 8 -3 66 -5 128 -4 99 2 120 5 162
27 164 85 165 316 1 400 -44 22 -64 25 -177 29 l-128 3 0 -225z m277 115 c59
-42 78 -122 46 -189 -26 -55 -64 -73 -155 -73 l-78 0 0 146 0 147 79 -5 c59
-3 85 -10 108 -26z"/>
<path d="M1332 464 l3 -229 43 -3 42 -3 0 80 0 81 40 0 c38 0 40 -2 76 -65 20
-36 43 -72 51 -80 13 -14 93 -22 93 -10 0 3 -21 42 -47 86 l-47 81 32 24 c57
45 67 140 21 198 -37 47 -75 59 -197 64 l-112 5 2 -229z m229 117 c25 -31 24
-60 -3 -88 -18 -19 -32 -23 -80 -23 l-58 0 0 71 0 71 61 -4 c49 -4 66 -9 80
-27z"/>
<path d="M1770 460 l0 -230 160 0 160 0 0 45 0 45 -115 0 -115 0 0 55 0 55 90
0 90 0 0 40 0 40 -90 0 -90 0 0 50 0 50 115 0 115 0 0 40 0 40 -160 0 -160 0
0 -230z"/>
<path d="M2312 643 c-54 -126 -162 -395 -162 -403 0 -6 20 -10 44 -10 42 0 44
1 60 45 l18 45 102 0 102 0 14 -42 c15 -42 16 -43 63 -46 26 -2 47 -1 47 1 0
2 -42 104 -93 228 l-93 224 -41 3 c-39 3 -41 2 -61 -45z m112 -197 c9 -21 16
-40 16 -42 0 -2 -29 -4 -65 -4 -36 0 -65 3 -65 7 0 4 14 45 31 90 l32 84 17
-48 c9 -26 25 -65 34 -87z"/>
<path d="M2662 463 l3 -228 43 -2 43 -3 -3 150 c-2 83 -1 150 2 150 3 0 28
-41 55 -90 43 -78 54 -90 77 -90 23 0 32 10 67 73 73 131 70 133 71 -40 l0
-153 40 0 40 0 2 180 c1 99 2 201 3 228 l0 47 -40 3 -40 3 -59 -98 c-33 -54
-65 -106 -71 -116 -11 -15 -21 -3 -81 98 l-69 115 -42 0 -43 0 2 -227z"/>
<path d="M3771 553 c-23 -27 -24 -27 -38 -8 -14 19 -15 19 -8 -5 7 -22 6 -24
-9 -11 -9 8 -15 20 -12 28 10 25 -4 13 -20 -19 -21 -41 -21 -133 1 -184 95
-229 446 -157 445 90 -1 56 -27 149 -29 102 -1 -14 -4 -16 -14 -7 -10 8 -17 7
-27 -2 -8 -7 -11 -8 -7 -1 4 7 0 17 -8 24 -13 11 -14 10 -9 -5 5 -13 4 -16 -5
-10 -11 6 -11 3 -1 -16 21 -39 17 -120 -8 -161 -37 -60 -121 -84 -188 -52 -75
36 -102 151 -54 229 26 42 23 44 -9 8z"/>
<path d="M3241 557 c-11 -14 -10 -18 71 -225 l40 -103 50 3 51 3 58 148 c53
134 62 177 39 177 -5 0 -6 -10 -3 -22 3 -17 2 -19 -5 -9 -8 11 -10 11 -15 0
-4 -11 -6 -11 -6 -1 -1 7 -6 10 -12 6 -8 -4 -9 1 -4 17 5 17 4 21 -3 14 -6 -5
-31 -62 -56 -125 -34 -88 -46 -110 -52 -95 -17 49 -76 190 -80 195 -3 2 -10
-2 -15 -10 -8 -11 -9 -10 -4 7 5 18 3 22 -9 17 -9 -3 -16 -14 -16 -23 -1 -14
-2 -14 -11 2 -5 9 -7 22 -4 27 9 15 -1 12 -14 -3z"/>
<path d="M4700 398 l0 -168 45 0 45 0 0 154 c0 85 -4 157 -9 161 -5 3 -12 -3
-14 -12 -4 -16 -5 -16 -6 -1 -1 11 -7 15 -22 11 -12 -4 -25 0 -30 8 -5 8 -9
-53 -9 -153z"/>
<path d="M4243 542 c-23 -3 -23 -5 -23 -158 l0 -154 155 0 155 0 0 40 0 40
-110 0 -110 0 -1 63 c-1 34 -4 86 -7 116 -7 56 -13 61 -59 53z"/>
</g>
</svg>
